<svg xmlns="http://www.w3.org/2000/svg" data-name="Layer 1" viewBox="0 0 128 128" width="256" height="256"><path d="M39.82288 37.15527a23.72611 23.72611 0 0 1 9.19055-2.14795 22.59726 22.59726 0 0 1 2.87823.127l-1.16113-4.10089c-.603-.02655-1.20862-.03888-1.81866-.02515a27.70729 27.70729 0 0 0-10.73358 2.50049 2.0001 2.0001 0 1 0 1.64459 3.64648zM41.78674 26.98828a36.405 36.405 0 0 1 5.77258 1.104c.869.24011 1.72485.51752 2.57068.82031l-1.30609-4.613c-.06738-.019-.13263-.04413-.20013-.06281a40.35277 40.35277 0 0 0-6.4093-1.2251 1.99975 1.99975 0 1 0-.42773 3.97656zM83 90.8a6.70354 6.70354 0 0 1-1.8 4.61 6.57916 6.57916 0 0 1-2.97 1.78V100a2 2 0 0 1-4 0V97.51H70.26a2 2 0 0 1 0-4h5.76A2.66784 2.66784 0 0 0 79 90.8c0-1.25-.78-2.58-2.98-2.58H73.97A6.68677 6.68677 0 0 1 67 81.52a6.51577 6.51577 0 0 1 1.79-4.54 6.89547 6.89547 0 0 1 5.18-2.05h.26V72a2 2 0 0 1 4 0v2.93h1.49a2 2 0 0 1 0 4H73.97c-1.58 0-2.97.9-2.97 2.59a2.65768 2.65768 0 0 0 2.97 2.7h2.05A6.56312 6.56312 0 0 1 83 90.8zM53.90558 113.89551a21.78622 21.78622 0 0 1-4.74677 3.33508C46.5835 120.75861 38.20453 124 27.00043 124S7.4173 120.75861 4.842 117.23059a21.78622 21.78622 0 0 1-4.74677-3.33508A7.008 7.008 0 0 0 0 115c0 7.41113 11.6076 13 27.00043 13s27.00037-5.58887 27.00037-13A7.008 7.008 0 0 0 53.90558 113.89551z" fill="#43ffff" class="color000 svgShape"></path><path d="M27.00043,118c15.39276,0,27.00037-5.58887,27.00037-13a7.008,7.008,0,0,0-.09521-1.10449,21.78622,21.78622,0,0,1-4.74677,3.33508C46.5835,110.75861,38.20453,114,27.00043,114S7.4173,110.75861,4.842,107.23059a21.78622,21.78622,0,0,1-4.74677-3.33508A7.008,7.008,0,0,0,0,105C0,112.41113,11.6076,118,27.00043,118Z" fill="#43ffff" class="color000 svgShape"></path><path d="M27.00043,108c15.39276,0,27.00037-5.58887,27.00037-13a7.008,7.008,0,0,0-.09521-1.10449,21.78622,21.78622,0,0,1-4.74677,3.33508C46.5835,100.75861,38.20453,104,27.00043,104S7.4173,100.75861,4.842,97.23059A21.78622,21.78622,0,0,1,.09521,93.89551,7.008,7.008,0,0,0,0,95C0,102.41113,11.6076,108,27.00043,108Z" fill="#43ffff" class="color000 svgShape"></path><path d="M27.00043,98c15.39276,0,27.00037-5.58887,27.00037-13a7.008,7.008,0,0,0-.09521-1.10449c-.30048.28467-.61969.55957-.94812.82941-.11493.09167-.2326.18182-.34863.27283l.00092.00073a23.56736,23.56736,0,0,1-3.45093,2.23212C46.5835,90.75861,38.20453,94,27.00043,94S7.4173,90.75861,4.842,87.23059A21.78622,21.78622,0,0,1,.09521,83.89551,7.008,7.008,0,0,0,0,85C0,92.41113,11.6076,98,27.00043,98Z" fill="#43ffff" class="color000 svgShape"></path><path d="M27 62C11.61 62 0 67.59 0 75S11.61 88 27 88s27-5.59 27-13S42.39 62 27 62zM78.23 72v2.93h1.49a2 2 0 0 1 0 4H73.97c-1.58 0-2.97.9-2.97 2.59a2.65768 2.65768 0 0 0 2.97 2.7h2.05A6.56312 6.56312 0 0 1 83 90.8a6.70354 6.70354 0 0 1-1.8 4.61 6.57916 6.57916 0 0 1-2.97 1.78V100a2 2 0 0 1-4 0V97.51H70.26a2 2 0 0 1 0-4h5.76A2.66784 2.66784 0 0 0 79 90.8c0-1.25-.78-2.58-2.98-2.58H73.97A6.68677 6.68677 0 0 1 67 81.52a6.51577 6.51577 0 0 1 1.79-4.54 6.89547 6.89547 0 0 1 5.18-2.05h.26V72a2 2 0 0 1 4 0z" fill="#43ffff" class="color000 svgShape"></path><path d="M117.18,55.17a1.89825,1.89825,0,0,0-.38-.37A49.26842,49.26842,0,0,0,96.88,39.48l-.67,2.37-.9,3.16A6.04135,6.04135,0,0,1,91.64,49,47.50238,47.50238,0,0,1,75,52a47.40649,47.40649,0,0,1-16.63-3,6.03251,6.03251,0,0,1-3.68-3.99l-1.57-5.53a47.88383,47.88383,0,0,0-10.77,6.23A51.08944,51.08944,0,0,0,33.2,54.8a1.89825,1.89825,0,0,0-.38.37c-.73.95-1.41,1.94-2.07,2.94,12.04.66,21.22,4.52,25.15,10.27l-.01.01c.11.15.21.31.31.47.2.32.38.64.55.97a4.54062,4.54062,0,0,1,.21.45.34043.34043,0,0,1,.07.15,5.93952,5.93952,0,0,1,.36.93c.06.16.11.33.16.49.06.19.11.39.15.58a21.99651,21.99651,0,1,1-.43,26.58,1.226,1.226,0,0,1-.07.17c-.11.28-.23.55-.36.82a10.89211,10.89211,0,0,1,.92,2.68l.09.58c.05.3.09.6.11.89A7.94419,7.94419,0,0,1,58,105c0,.1,0,.21-.01.31-.01.11-.01.21-.02.31l.01.01a11.51036,11.51036,0,0,1-.78,3.55l.65,4.08A10.67138,10.67138,0,0,1,58,115c0,4.1-2.14,7.7-5.93,10.51a108.01026,108.01026,0,0,0,50.62-1.13c13.23-3.5,22.99-15.15,24.86-29.67A53.87339,53.87339,0,0,0,117.18,55.17Z" fill="#43ffff" class="color000 svgShape"></path><path d="M92.70215 35.87256a1.9024 1.9024 0 0 1-.23047.0708A74.38074 74.38074 0 0 1 75 37.99512a74.38074 74.38074 0 0 1-17.47168-2.05176 1.87493 1.87493 0 0 1-.21289-.064l-1.17255-.42719L58.54 43.92a1.9794 1.9794 0 0 0 1.22 1.33 43.6036 43.6036 0 0 0 30.48 0 2.0161 2.0161 0 0 0 1.23-1.33l2.40234-8.48621zM54.79907 30.70514l3.78 1.37738a71.3929 71.3929 0 0 0 32.833.002l3.813-1.42987L98.85 17.85c0-.02.01-.04.01-.06A4.67035 4.67035 0 0 0 94.32 12H88.9a14.05044 14.05044 0 0 0-27.8 0H55.68a4.66451 4.66451 0 0 0-4.52 5.85z" fill="#43ffff" class="color000 svgShape"></path></svg>
