<svg xmlns="http://www.w3.org/2000/svg" fill-rule="evenodd" clip-rule="evenodd" image-rendering="optimizeQuality" shape-rendering="geometricPrecision" text-rendering="geometricPrecision" viewBox="0 0 4335 4335"><path fill="#796acc" d="M1311 1286h477V907h229l4 376 167 2-1-378h230l3 385c365 30 677 218 562 564-35 106-97 155-173 217l33 20c16 7 28 10 45 18 231 108 283 366 200 598-93 258-333 332-667 333v387h-229l-4-385-165-1v386h-230l-3-387h-461l8-249c318-2 274 98 274-645 0-151-1-302 0-453 0-89 14-144-71-160-54-10-166-4-228-4l1-243zm683-621c-451 58-778 279-982 525-226 273-405 675-345 1160 95 770 790 1421 1675 1318 774-89 1420-783 1328-1667-86-831-859-1441-1677-1336z" class="colorb39451 svgShape"/><path fill="#fff" d="M2026 2258c248-16 664-43 638 258-24 283-368 267-642 251l5-508zm-4-710c227-13 543-20 527 241-15 261-277 240-527 225l-1-466zm-712-18c62 0 174-6 228 4 85 16 72 71 71 160-1 151 0 302 0 453 0 743 45 643-274 645l-8 249h461l3 387h230v-386l165 1 4 385h229v-387c334 0 574-75 667-333 83-232 31-490-200-598-17-8-29-11-45-18l-33-20c76-62 138-110 173-217 115-346-197-534-562-564l-3-385h-230l1 378-167-2-4-376h-229v379h-477l-1 243z" class="colorfcfdfe svgShape"/><path fill="#796acc" d="M244 2315c-35-425 77-814 281-1158 163-275 456-553 747-696 512-251 1033-303 1582-96 264 100 424 222 602 367 136 110 346 382 419 539 243 523 310 1016 95 1583-100 265-221 422-367 602-115 142-375 337-540 418-241 119-442 190-748 217-292 25-585-27-833-121-122-47-221-99-325-160-514-299-863-892-913-1495zm4025 11c69-705-268-1394-801-1817-315-250-707-406-1135-443-329-28-644 31-915 130-266 98-449 230-656 397-81 65-183 186-253 273-249 311-405 711-443 1139-54 618 169 1131 528 1568 54 65 206 201 273 253 568 448 1362 579 2050 312 370-143 668-365 909-670 260-329 399-696 442-1143z" class="colorb39451 svgShape"/><path fill="#796acc" d="M2021 2766c275 16 618 33 642-251 26-300-389-273-638-258l-5 508zM2022 2014c250 14 512 36 527-225s-301-254-527-241l1 466z" class="colorb39451 svgShape"/><path fill="#4effff" d="M2199 907h218l3 385c365 30 677 218 562 564-35 106-97 155-173 217l33 20c16 7 28 10 45 18 231 108 283 366 200 598-93 258-333 332-667 333v387h-221v252c47-1 95-4 143-10 774-89 1420-783 1328-1667-79-761-734-1336-1471-1348v253z" class="color9f7d32 svgShape"/><path fill="#4effff" d="M2199 237c214 3 432 44 655 129 264 100 424 222 602 367 136 110 346 382 419 539 243 523 310 1016 95 1583-100 265-221 422-367 602-115 142-375 337-540 418-241 119-442 190-748 217-38 3-77 5-115 6v179c243-3 487-47 718-137 370-143 668-365 909-670 260-329 399-696 442-1143 69-705-268-1394-801-1817-315-250-707-406-1135-443-45-4-90-6-134-7v177z" class="color9f7d32 svgShape"/><path fill="#4effff" d="M2199 2773c227 3 445-34 465-258 20-237-234-270-465-266v524zM2199 2022c184 1 339-34 350-233 11-197-165-241-350-246v478z" class="color9f7d32 svgShape"/></svg>