<svg version="1.1" xmlns="http://www.w3.org/2000/svg" xmlns:xlink="http://www.w3.org/1999/xlink" x="0px" y="0px"
     viewBox="0 0 750 500" style="enable-background:new 0 0 750 500;" xml:space="preserve">
    <g id="OBJECTS">
	<g>
		<linearGradient id="SVGID_1_" gradientUnits="userSpaceOnUse" x1="368.6789" y1="408.6402" x2="368.6789" y2="17.2708">
			<stop  offset="0" style="stop-color:#FFFFFF;stop-opacity:0"/>
            <stop  offset="0.2447" style="stop-color:#DAE6FF;stop-opacity:0.2447"/>
            <stop  offset="0.585" style="stop-color:#ADC7FF;stop-opacity:0.585"/>
            <stop  offset="0.848" style="stop-color:#90B3FF;stop-opacity:0.848"/>
            <stop  offset="1" style="stop-color:#86ACFF"/>
		</linearGradient>
        <path style="fill:url(#SVGID_1_);" d="M587.262,432.63H150.096V120.112c0-11.211,9.088-20.299,20.299-20.299h396.569
			c11.211,0,20.299,9.088,20.299,20.299V432.63z"/>
        <g>
			<path style="fill:#285EE0;" d="M406.262,415.209l4.252,7.851c0,0,10.915,4.32,10.998,7.421c0.083,3.101-21,1.788-25.583,1.455
				c-4.583-0.332-0.417-12.089-0.417-12.089l-0.417-4.638H406.262z"/>
            <path style="fill:#285EE0;" d="M342.471,415.209c0,0,2.808,15.305-0.449,16.666c-4.008,1.675-16.734,0.621-16.676-1.395
				c0.083-2.892,4-6.908,4-6.908l2.375-8.364H342.471z"/>
            <path style="fill:#0D1A42;" d="M408.549,223.324c0,0,4.882,113.569-0.741,193.562h-13.878c0,0-8.667-38.287-8.667-51.82
				c0-13.534-1.337-33.221-1.337-33.221l-8.83-78.458l-30.25,163.5h-16.433c0,0-2.191-41.687,0.996-56.687
				c3.187-15,1.906-20.167,4.047-25.917c2.14-5.75,2.589-11.333,2.589-11.333l-1.115-98.813L408.549,223.324z"/>

            <linearGradient id="SVGID_00000005254513030616411890000013169227475218359452_" gradientUnits="userSpaceOnUse" x1="334.9289" y1="233.8373" x2="409.2858" y2="233.8373">
				<stop  offset="0" style="stop-color:#000000;stop-opacity:0"/>
                <stop  offset="1" style="stop-color:#000000"/>
			</linearGradient>
            <path style="opacity:0.36;fill:url(#SVGID_00000005254513030616411890000013169227475218359452_);" d="M408.549,223.324
				l-73.62,0.812l0.114,10.133l74.242,10.082C408.889,231.238,408.549,223.324,408.549,223.324z"/>
            <path style="fill:#FF8282;" d="M364.762,79.366l0.833,20.833c0,0,7.083,3.75,13.417,0.833l-1.75-19.917L364.762,79.366z"/>
            <path style="fill:#D94D4D;" d="M378.208,91.881l-0.946-10.766l-12.5-1.75l0.268,6.707
				C367.792,89.023,372.838,93.234,378.208,91.881z"/>
            <path style="fill:#F9A963;" d="M360.762,98.032l2.667-5.25h7.12l1.338,6.083h1.875l1.333-5.417l5.833-1.307l2.75,6.724
				l3.583,0.583c0,0,0,54.583-12,85.053c0,0-14-34.538-17.521-84.928L360.762,98.032z"/>
            <polygon style="fill:#3446AD;" points="367.838,98.558 377.049,98.813 378.208,103.322 375.346,107.949 369.346,107.949
				366.727,101.77 			"/>
            <polygon style="fill:#222F73;" points="369.346,107.949 369.346,175.032 376.012,187.532 383.512,172.699 375.346,107.949 			"/>
            <path style="fill:#FF8282;" d="M362.429,67.366l0.417,7.5c0,0-1-2.167-2.5-1.667s0.75,5.833,2.917,5.333
				c0,0,0.369,7.484,9.75,8.958c4.878,0.766,6.417-3.541,6.333-7.041c-0.083-3.5,0.5-16.167,0.5-16.167
				S362.429,59.616,362.429,67.366z"/>
            <path style="fill:#33120C;" d="M362.846,74.866l2.167-7.833c0,0,3.417-1.833,5.917,1.167s5.216,3.362,8.65,2.473l-0.146,4.194
				l2.496-3.833c0,0,2.667,0.583,3.25-3.167c0.583-3.75-5.167-12.333-11.167-14c-6-1.667-11.833,1.167-12.75,8.083
				c0,0-3.75-1.917-4.917,2.667c-1.167,4.583-0.225,7.648,3.679,10.574C360.025,75.189,360.012,71.282,362.846,74.866z"/>

            <polyline style="fill:none;stroke:#222F73;stroke-width:0.5;stroke-linecap:round;stroke-linejoin:round;stroke-miterlimit:10;" points="
				369.346,94.199 365.512,105.282 361.096,98.532 			"/>

            <polyline style="fill:none;stroke:#222F73;stroke-width:0.5;stroke-linecap:round;stroke-linejoin:round;stroke-miterlimit:10;" points="
				376.012,94.782 379.012,106.449 383.512,99.741 			"/>
            <path style="fill:#0D1A42;" d="M358.014,99.933c1.283,9.484,7.079,49.705,17.082,81.099c0,0,9.095-24.027,11.092-80.928
				c0.041-1.175,1.117-2.042,2.27-1.813c7.105,1.41,29.31,6.084,34.471,10.408c6.167,5.167,20.168,75.803,20.168,75.803
				l42.082,27.531l-2.995,14.5l-49.001-19.101c-7.514-2.929-13.578-8.69-16.888-16.045l-6.891-15.311l-3.476,30.624l5.097,22.333
				h-80.764l7.058-31.833l-3.865-36.813l-10.633,28.611c-2.525,6.793-7.89,12.145-14.689,14.652l-37.788,13.936l-3.833-21.899
				l30.75-17.674l18.381-57.609c2.759-8.647,9.883-15.192,18.733-17.21l21.324-4.862C356.793,98.082,357.863,98.823,358.014,99.933z
				"/>

            <line style="fill:none;stroke:#222F73;stroke-width:0.75;stroke-linecap:round;stroke-linejoin:round;stroke-miterlimit:10;" x1="299.596" y1="177.199" x2="305.611" y2="176.199"/>

            <line style="fill:none;stroke:#222F73;stroke-width:0.75;stroke-linecap:round;stroke-linejoin:round;stroke-miterlimit:10;" x1="299.596" y1="179.574" x2="310.596" y2="182.949"/>

            <line style="fill:none;stroke:#222F73;stroke-width:0.75;stroke-linecap:round;stroke-linejoin:round;stroke-miterlimit:10;" x1="440.262" y1="185.29" x2="432.87" y2="187.865"/>

            <line style="fill:none;stroke:#222F73;stroke-width:0.75;stroke-linecap:round;stroke-linejoin:round;stroke-miterlimit:10;" x1="438" y1="182.431" x2="425.096" y2="182.431"/>

            <linearGradient id="SVGID_00000150088764278528473910000018057350962822625979_" gradientUnits="userSpaceOnUse" x1="310.0195" y1="146.649" x2="333.4552" y2="146.649">
				<stop  offset="0" style="stop-color:#000000;stop-opacity:0"/>
                <stop  offset="1" style="stop-color:#000000"/>
			</linearGradient>
            <path style="opacity:0.36;fill:url(#SVGID_00000150088764278528473910000018057350962822625979_);" d="M323.463,187.275
				l9.993-26.889l-6.239-54.363c-5.431,3.151-9.61,8.228-11.573,14.38l-5.624,17.626c1.639,5.104,3.266,10.177,2.909,14.67
				C312.284,160.823,317.61,180.801,323.463,187.275z"/>

            <linearGradient id="SVGID_00000141441368825050626100000002701878308514551461_" gradientUnits="userSpaceOnUse" x1="429.2518" y1="160.5662" x2="409.2518" y2="135.5661">
				<stop  offset="0" style="stop-color:#000000;stop-opacity:0"/>
                <stop  offset="1" style="stop-color:#000000"/>
			</linearGradient>
            <path style="opacity:0.36;fill:url(#SVGID_00000141441368825050626100000002701878308514551461_);" d="M422.929,108.699
				c-1.221-1.023-3.404-2.066-6.108-3.08l-7.416,70.456l3.842,8.537c3.081-4.844,8.374-16.262,9.738-28.237
				c0.954-8.374,6.666-11.123,10.439-15.797C429.631,125.077,425.565,110.907,422.929,108.699z"/>

            <line style="fill:none;stroke:#222F73;stroke-width:0.75;stroke-linecap:round;stroke-linejoin:round;stroke-miterlimit:10;" x1="375.096" y1="181.032" x2="375.096" y2="228.574"/>
            <g>
				<path style="fill:none;stroke:#222F73;stroke-width:0.5;stroke-linecap:round;stroke-linejoin:round;stroke-miterlimit:10;" d="
					M328.413,416.886h16.433l0.621-3.354h-17.209C328.348,415.652,328.413,416.886,328.413,416.886z"/>
                <path style="fill:none;stroke:#222F73;stroke-width:0.5;stroke-linecap:round;stroke-linejoin:round;stroke-miterlimit:10;" d="
					M393.188,413.532c0.459,2.104,0.741,3.354,0.741,3.354h13.878c0.078-1.111,0.153-2.231,0.228-3.354H393.188z"/>
			</g>

            <linearGradient id="SVGID_00000074443932021256636150000005731255031664063675_" gradientUnits="userSpaceOnUse" x1="425.6316" y1="338.1403" x2="379.2982" y2="291.807">
				<stop  offset="0" style="stop-color:#000000;stop-opacity:0"/>
                <stop  offset="1" style="stop-color:#000000"/>
			</linearGradient>
            <path style="opacity:0.36;fill:url(#SVGID_00000074443932021256636150000005731255031664063675_);" d="M410.158,281.605h-31.887
				l5.654,50.24c0,0,0.02,0.294,0.055,0.834c0.28,4.332,2.568,8.307,6.216,10.66c7.087,4.571,14.469,11.487,19.966,17.126
				C410.71,332.723,410.546,304.887,410.158,281.605z"/>

            <line style="fill:none;stroke:#222F73;stroke-width:0.75;stroke-linecap:round;stroke-linejoin:round;stroke-miterlimit:10;" x1="392.596" y1="324.199" x2="399.096" y2="329.866"/>

            <line style="fill:none;stroke:#222F73;stroke-width:0.75;stroke-linecap:round;stroke-linejoin:round;stroke-miterlimit:10;" x1="393.596" y1="330.699" x2="397.929" y2="332.532"/>
            <path style="fill:none;stroke:#222F73;stroke-width:0.75;stroke-linecap:round;stroke-linejoin:round;stroke-miterlimit:10;" d="
				M338.096,320.105c0,0,3.167,4.094,6.5,6.26"/>

            <line style="fill:none;stroke:#222F73;stroke-width:0.75;stroke-linecap:round;stroke-linejoin:round;stroke-miterlimit:10;" x1="339.221" y1="329.032" x2="347.096" y2="330.699"/>
            <path style="fill:#263D82;" d="M357.741,99.574c0,0-10.08,11.958-9.696,18.292c0.384,6.333,9.696,20.456,9.696,20.456
				s-6.146,4.377-3.812,15.044c2.333,10.667,21.167,27.667,21.167,27.667L357.741,99.574z"/>
            <path style="fill:#263D82;" d="M386.392,99.307l-11.297,81.725c0,0,13.667-19.667,16-27.667c2.333-8-3.833-15.833-3.833-15.833
				s6.667-9.5,9.333-17.667C399.262,111.699,386.392,99.307,386.392,99.307z"/>
		</g>
        <g>
			<g>
				<g>
					<circle style="fill:#222F73;" cx="554.997" cy="428.658" r="3.624"/>
                    <circle style="fill:#222F73;" cx="477.874" cy="428.658" r="3.624"/>
				</g>
                <path style="fill:#33120C;" d="M478.251,421.077l27.725-9.678c5.034-1.757,8.342-6.582,8.167-11.911l-2.291-71.289h9.165
					l-2.291,71.289c-0.175,5.329,3.133,10.154,8.167,11.911l27.725,9.678c0.775,0.271,1.239,1.1,1.005,1.942
					c-0.224,0.807-1.09,1.262-1.912,1.105l-27.781-5.311c-6.274-1.199-12.719-1.199-18.993,0l-27.78,5.311
					c-0.823,0.157-1.688-0.298-1.913-1.105C477.012,422.177,477.476,421.347,478.251,421.077z"/>
                <g>
					<polygon style="fill:#33120C;" points="543.959,322.949 551.112,322.949 553.862,275.7 546.709,275.7 					"/>
                    <polygon style="fill:#33120C;" points="511.925,322.949 519.078,322.949 521.828,275.7 514.675,275.7 					"/>
				</g>
                <path style="fill:#BA7E34;" d="M483.19,329.949h66.491c5.019,0,9.088-4.069,9.088-9.088v0c0-5.019-4.069-9.088-9.088-9.088
					H483.19c-5.019,0-9.088,4.069-9.088,9.088v0C474.102,325.88,478.171,329.949,483.19,329.949z"/>
                <path style="fill:#BA7E34;" d="M514.073,288.866h37.642c8.866,0,16.466-7.188,16.975-16.054l3.952-68.892
					c0.509-8.866-6.267-16.054-15.133-16.054h-37.642c-8.866,0-16.466,7.188-16.975,16.054l-3.951,68.892
					C498.431,281.678,505.206,288.866,514.073,288.866z"/>

                <linearGradient id="SVGID_00000158746338455411308570000005603209587831275960_" gradientUnits="userSpaceOnUse" x1="547.0263" y1="238.3654" x2="572.6677" y2="238.3654">
					<stop  offset="0" style="stop-color:#000000;stop-opacity:0"/>
                    <stop  offset="1" style="stop-color:#000000"/>
				</linearGradient>
                <path style="opacity:0.36;fill:url(#SVGID_00000158746338455411308570000005603209587831275960_);" d="M564.001,272.811
					l3.951-68.892c0.508-8.866-6.267-16.054-15.133-16.054h4.688c8.866,0,15.642,7.188,15.133,16.054l-3.952,68.892
					c-0.508,8.866-8.108,16.054-16.975,16.054h-4.688C555.893,288.865,563.493,281.678,564.001,272.811z"/>
			</g>
            <g>
				<g>
					<circle style="fill:#222F73;" cx="182.361" cy="428.658" r="3.624"/>
                    <circle style="fill:#222F73;" cx="259.484" cy="428.658" r="3.624"/>
				</g>
                <path style="fill:#33120C;" d="M259.106,421.077l-27.725-9.678c-5.034-1.757-8.342-6.582-8.167-11.911l2.291-71.289h-9.166
					l2.291,71.289c0.176,5.329-3.132,10.154-8.167,11.911l-27.725,9.678c-0.775,0.271-1.239,1.1-1.005,1.942
					c0.224,0.807,1.09,1.262,1.912,1.105l27.781-5.311c6.274-1.199,12.719-1.199,18.993,0l27.781,5.311
					c0.823,0.157,1.688-0.298,1.913-1.105C260.346,422.177,259.881,421.347,259.106,421.077z"/>
                <g>
					<polygon style="fill:#33120C;" points="193.398,322.949 186.246,322.949 183.496,275.7 190.648,275.7 					"/>
                    <polygon style="fill:#33120C;" points="225.433,322.949 218.28,322.949 215.53,275.7 222.683,275.7 					"/>
				</g>
                <path style="fill:#BA7E34;" d="M254.168,329.949h-66.491c-5.019,0-9.088-4.069-9.088-9.088v0c0-5.019,4.069-9.088,9.088-9.088
					h66.491c5.019,0,9.088,4.069,9.088,9.088v0C263.256,325.88,259.187,329.949,254.168,329.949z"/>
                <path style="fill:#BA7E34;" d="M223.285,288.866h-37.642c-8.866,0-16.466-7.188-16.975-16.054l-3.951-68.892
					c-0.509-8.866,6.267-16.054,15.133-16.054h37.642c8.866,0,16.466,7.188,16.975,16.054l3.951,68.892
					C238.927,281.678,232.152,288.866,223.285,288.866z"/>

                <linearGradient id="SVGID_00000146457248445456080080000015028601708563723682_" gradientUnits="userSpaceOnUse" x1="873.4472" y1="238.3654" x2="899.0886" y2="238.3654" gradientTransform="matrix(-1 0 0 1 1063.7787 0)">
					<stop  offset="0" style="stop-color:#000000;stop-opacity:0"/>
                    <stop  offset="1" style="stop-color:#000000"/>
				</linearGradient>
                <path style="opacity:0.36;fill:url(#SVGID_00000146457248445456080080000015028601708563723682_);" d="M173.357,272.811
					l-3.951-68.892c-0.508-8.866,6.267-16.054,15.133-16.054h-4.688c-8.866,0-15.642,7.188-15.133,16.054l3.951,68.892
					c0.509,8.866,8.109,16.054,16.975,16.054h4.688C181.465,288.865,173.865,281.678,173.357,272.811z"/>
			</g>
		</g>
        <g>
			<polygon style="fill:#FF8282;" points="289.596,393.699 292.929,417.949 281.846,418.699 275.471,393.699 			"/>
            <path style="fill:#304012;" d="M196.346,267.491c-12.186,0-25.434,48.708,1,48.708c26.434,0,49.917,0,49.917,0
				s1.333,12.333,5,16.333c0,0,3,19.333,7.5,27l11.5,36.667h21.667c0,0-0.5-73.5-16.583-107.417l-20.083-21.292
				C256.262,267.491,214.756,267.491,196.346,267.491z"/>

            <linearGradient id="SVGID_00000005239671641620589800000006215422272791406471_" gradientUnits="userSpaceOnUse" x1="232.8524" y1="387.6671" x2="232.8524" y2="306.6699">
				<stop  offset="0" style="stop-color:#000000;stop-opacity:0"/>
                <stop  offset="1" style="stop-color:#000000"/>
			</linearGradient>
            <path style="opacity:0.36;fill:url(#SVGID_00000005239671641620589800000006215422272791406471_);" d="M283.688,310.638
				c-1.99-8.145-4.405-15.662-7.342-21.856l-20.083-21.292c0,0-41.506,0-59.917,0c-12.186,0-25.434,48.708,1,48.708
				c26.434,0,49.917,0,49.917,0s1.333,12.333,5,16.333c0,0,2.278,14.675,5.841,23.524c4.49-6.906,9.483-15.436,10.326-20.357
				C269.46,329.673,277.917,318.027,283.688,310.638z"/>

            <line style="fill:none;stroke:#5F8024;stroke-width:0.5;stroke-linecap:round;stroke-linejoin:round;stroke-miterlimit:10;" x1="271.846" y1="390.949" x2="290.416" y2="390.949"/>
            <path style="fill:#222F73;" d="M284.802,411.379c0,0,2.733-3.638,7.486-2.91c4.754,0.728,4.285,7.355,4.285,7.355l6.657,6.718
				c0,0,11.896,4.444,11.536,7.571c-0.36,3.127-11.236,3.053-19.244,1.341c-4.862-1.039-10.092-1.939-13.451-2.485
				c-2.011-0.327-3.421-2.152-3.238-4.181l0.743-8.259C279.576,416.529,277.359,409.513,284.802,411.379z"/>
            <path style="fill:#222F73;" d="M231.908,166.824l-2.75-7.688c0,0-5.186,0.192-6.563-5.104c-1.083-4.167,2.125-8.021,2.125-8.021
				s-2.682-5.544,0.438-9.563c3.25-4.188,7.688-2.625,7.688-2.625s1.875-7.375,8-8.188s9.688,5.125,9.688,5.125
				s6.812-2.25,9.937,2.188s0.313,15.938-9.812,15.938L231.908,166.824z"/>
            <g>
				<path style="fill:#FFFFFF;" d="M367.435,207.71h-7.514c-2.654,0-4.806-2.151-4.806-4.805v-18.389
					c0-0.671,0.544-1.215,1.215-1.215h14.695c0.671,0,1.215,0.544,1.215,1.215v18.389
					C372.241,205.558,370.089,207.71,367.435,207.71z"/>
                <g>
					<path style="fill:#FFFFFF;" d="M356.741,205.668h-3.437c-2.349,0-4.327-1.759-4.6-4.092l-1.641-13.972
						c-0.092-0.787,0.157-1.579,0.684-2.17c0.527-0.592,1.284-0.932,2.076-0.932h6.584c0.553,0,1,0.448,1,1c0,0.552-0.447,1-1,1
						h-6.584c-0.304,0-0.495,0.164-0.582,0.261c-0.086,0.098-0.227,0.306-0.191,0.608l1.641,13.972
						c0.155,1.326,1.279,2.325,2.614,2.325h3.437c0.553,0,1,0.448,1,1C357.741,205.22,357.294,205.668,356.741,205.668z"/>
				</g>
			</g>
            <path style="fill:#FF8282;" d="M346.179,188.199c0,0,2.833-1.831,5-1.416c2.167,0.416,2.083,11.916,1.917,14.082
				c-0.167,2.167-3.185,3.833-5.051,3.333s-10.725-6.333-10.725-6.333S342.096,187.782,346.179,188.199z"/>
            <path style="opacity:0.28;fill:#FFFFFF;" d="M364.596,179.574c0,0-1.835-10.5-9.48-13.125
				c-5.145-10.625-14.645-7.625-14.645-7.625s-10.875-6.125-13.875,1s4.625,7.5,9.375,7.125c2,3,8.375,6.688,14.125,4.813
				c2.297,4.188,9.125,4.188,9.125,4.188S360.471,178.699,364.596,179.574z"/>
            <path style="fill:#FF8282;" d="M326.596,210.615l7.333-10.25c0,0,1.833-6,4.5-9.75c2.667-3.75,7.667-4.333,9.333-3.5
				c1.667,0.833-4.583,4-4.583,4s-1.75,2.667,0.333,3.917c-0.25,2.083,0.583,3.001,1.417,3.667c0,1.416,0.333,2.583,1.167,2.999
				c0.75,1.917,1.949,2.5,1.949,2.5s-3.283,2.75-5.866,2.75l-6.417,10.636L326.596,210.615z"/>
            <path style="fill:#D94D4D;" d="M332.144,202.861l-5.548,7.755l9.167,6.969l3.217-5.332
				C335.601,209.197,333.441,205.612,332.144,202.861z"/>
            <path style="fill:#FF8282;" d="M248.436,141.179c1.355,2.048,3.704,5.266,5.492,5.936c-1.5,1.167-2.167,1.833-2.167,1.833
				l0.417,2.75l-4.25,2.083c0,0,2.167,0.583,4.833,0.333c0,0,1,7.5-1.167,7.833c-2.167,0.333-4.25,0.5-4.25,0.5l-3.333,19.417
				c0,0-10.667,4.667-17.167-1.417l5.917-22c0,0,2.083-0.667,3.167-5c-2,0.917-3.667-3.75-2.583-5.333
				c1.083-1.583,3.25-1.083,3.417,1c0,0,2.083-1.5,2.333-4.083c2.863,1.236,6.209-1.491,7.598-3.817
				C247.083,140.562,248.016,140.544,248.436,141.179z"/>
            <path style="fill:#285EE0;" d="M205.346,180.872c5.625-0.173,21.5-3.673,21.5-3.673s10.072,7.593,19.875,0
				c0,0,24.75,4.254,33.75,6.377c9,2.123,18.5,18.248,27.375,44.998l19.125-21l12.25,9.125c0,0-16.375,47.5-35.375,47.5
				c-20.375,0-28.625-36.25-28.625-36.25l-4.125,33.25c0,0,6.625,11.625-0.875,11.625s-83.375,0-83.375,0L205.346,180.872z"/>
            <path style="fill:#D94D4D;" d="M247.346,162.449c0,0-5.938,0.063-8-2.063c0,0,1.612,6.06,7.056,7.561L247.346,162.449z"/>
            <g>
				<path style="fill:#222F73;" d="M236.917,180.615l-1.369-4.451c-0.181-0.587-0.673-1.02-1.279-1.119
					c-1.335-0.216-3.802-0.646-5.953-1.187c-0.872-0.22-1.782,0.179-2.191,0.98l-1.29,2.526l6.917,10.5l2.333-7.208L236.917,180.615
					z"/>
                <path style="fill:#222F73;" d="M236.917,180.615l1.401-4.552c0.162-0.525,0.605-0.914,1.148-1.001
					c1.238-0.199,3.577-0.602,5.694-1.115c1.095-0.265,2.226,0.256,2.738,1.259l1.103,2.159l-6.917,10.5l-2.333-7.208
					L236.917,180.615z"/>

                <line style="fill:none;stroke:#3054AB;stroke-width:0.5;stroke-linecap:round;stroke-linejoin:round;stroke-miterlimit:10;" x1="231.751" y1="187.865" x2="234.908" y2="178.011"/>

                <line style="fill:none;stroke:#3054AB;stroke-width:0.5;stroke-linecap:round;stroke-linejoin:round;stroke-miterlimit:10;" x1="242.084" y1="187.865" x2="239.033" y2="178.011"/>
			</g>
            <path style="fill:none;stroke:#477DFF;stroke-width:0.5;stroke-linecap:round;stroke-linejoin:round;stroke-miterlimit:10;" d="
				M215.596,203.324c0,0,0.25,13.375-6.25,22.125"/>

            <linearGradient id="SVGID_00000175321426653061000730000013286086375250476440_" gradientUnits="userSpaceOnUse" x1="283.8324" y1="277.1235" x2="194.3325" y2="234.1236">
				<stop  offset="0" style="stop-color:#000000;stop-opacity:0"/>
                <stop  offset="1" style="stop-color:#000000"/>
			</linearGradient>
            <path style="opacity:0.36;fill:url(#SVGID_00000175321426653061000730000013286086375250476440_);" d="M202.365,195.686
				c0,0,10.066,15.347,13.232,29.763c3.165,14.417,28.332,23.833,36.665,47.375h-65.417L202.365,195.686z"/>

            <line style="fill:none;stroke:#477DFF;stroke-width:0.5;stroke-linecap:round;stroke-linejoin:round;stroke-miterlimit:10;" x1="238.929" y1="225.011" x2="212.471" y2="244.032"/>

            <line style="fill:none;stroke:#477DFF;stroke-width:0.5;stroke-linecap:round;stroke-linejoin:round;stroke-miterlimit:10;" x1="307.846" y1="228.574" x2="299.596" y2="238.532"/>
            <path style="fill:none;stroke:#477DFF;stroke-width:0.5;stroke-linecap:round;stroke-linejoin:round;stroke-miterlimit:10;" d="
				M298.262,255.365c0,0,5.333-2.5,10.833,1.917"/>

            <line style="fill:none;stroke:#477DFF;stroke-width:0.5;stroke-linecap:round;stroke-linejoin:round;stroke-miterlimit:10;" x1="297.262" y1="231.535" x2="294.262" y2="240.199"/>

            <linearGradient id="SVGID_00000076583217507862778270000010048907722468641422_" gradientUnits="userSpaceOnUse" x1="297.6829" y1="235.8357" x2="279.5162" y2="208.3357">
				<stop  offset="0" style="stop-color:#000000;stop-opacity:0"/>
                <stop  offset="1" style="stop-color:#000000"/>
			</linearGradient>
            <path style="opacity:0.36;fill:url(#SVGID_00000076583217507862778270000010048907722468641422_);" d="M275.221,227.949
				c0,0,1.89,8.278,6.081,16.922c4.141-10.637,16.723-18.707,24.31-22.762c-8.223-22.872-16.892-36.588-25.141-38.534
				c-0.55-0.13-1.16-0.268-1.818-0.412c2.348,4.4,2.383,10.852,1.277,17.368C278.429,209.365,275.221,227.949,275.221,227.949z"/>
            <path style="fill:none;stroke:#477DFF;stroke-width:0.5;stroke-linecap:round;stroke-linejoin:round;stroke-miterlimit:10;" d="
				M284.546,212.221c0,0-2.199,5.274-6.441,10.728"/>
            <path style="fill:#222F73;" d="M324.046,210.785l13.378,10.703c1.161-2.948,1.796-4.788,1.796-4.788l-12.25-9.125
				L324.046,210.785z"/>
            <path style="fill:#FF8282;" d="M226.512,261.366l19.917,4.333c0,0,11.083,0.833,13.333,7.917H225.7L226.512,261.366z"/>
            <polygon style="fill:#FF8282;" points="222.644,366.368 210.98,390.423 202.07,386.168 208.111,365.066 			"/>
            <path style="fill:#222F73;" d="M203.808,377.899l2.112,1.946c0,0,1.891-2.424,3.808-1.416c1.918,1.009,5.072,2.661,6.311,3.552
				c1.239,0.89-2.489,6.078-2.489,6.078l-2.505,10.569c0,0,1.567,11.101-3.255,10.752s-9.047-6.417-8.013-12.348
				c1.034-5.931,0.11-9.445-0.602-11.767C198.463,382.942,199.997,380.904,203.808,377.899z"/>
            <path style="fill:#D94D4D;" d="M346.096,201.699c-0.833-0.417-1.167-1.583-1.167-2.999c-0.833-0.666-1.667-1.584-1.417-3.667
				c-2.083-1.25-0.333-3.917-0.333-3.917s-6.405,8.782-1,15.833c2.583,0,5.866-2.75,5.866-2.75S346.846,203.615,346.096,201.699z"/>
            <path style="fill:#285EE0;" d="M205.346,180.872c0,0-18.5,1.327-25,29.577c-3.837,16.678-7.594,35.601-9.85,49.887
				c-1.814,11.483,7.068,21.863,18.694,21.863h37.657l1.25-21.5l-19.25-5c0,0,1.5-1.25-0.75-2.25s-0.25-4-2.25-5.5l2.75-25
				C208.596,222.949,216.596,201.199,205.346,180.872z"/>

            <line style="fill:none;stroke:#477DFF;stroke-width:0.5;stroke-linecap:round;stroke-linejoin:round;stroke-miterlimit:10;" x1="206.762" y1="253.949" x2="203.179" y2="258.116"/>

            <line style="fill:none;stroke:#477DFF;stroke-width:0.5;stroke-linecap:round;stroke-linejoin:round;stroke-miterlimit:10;" x1="208.429" y1="257.282" x2="206.762" y2="261.949"/>
            <path style="fill:none;stroke:#477DFF;stroke-width:0.5;stroke-linecap:round;stroke-linejoin:round;stroke-miterlimit:10;" d="
				M204.512,248.949c0,0-9.333,2.083-9.667,1c-0.333-1.083,4.332-1.417,4.332-1.417"/>
            <path style="fill:none;stroke:#477DFF;stroke-width:0.5;stroke-linecap:round;stroke-linejoin:round;stroke-miterlimit:10;" d="
				M209.454,190.919c0,0,4.767,14.405-0.858,32.03"/>
            <polygon style="fill:#222F73;" points="221.621,282.199 226.846,282.199 228.096,260.699 222.948,259.362 			"/>
            <g>

					<line style="fill:none;stroke:#5F8024;stroke-width:0.5;stroke-linecap:round;stroke-linejoin:round;stroke-miterlimit:10;" x1="259.762" y1="311.773" x2="253.596" y2="322.949"/>

                <line style="fill:none;stroke:#5F8024;stroke-width:0.5;stroke-linecap:round;stroke-linejoin:round;stroke-miterlimit:10;" x1="263.033" y1="318.449" x2="256.679" y2="325.949"/>
			</g>
            <path style="fill:#304012;" d="M276.346,288.782c0,0-2.25-25.083-22.5-25.083s-27.333,25.25-34.292,47.5
				s-18.208,57.5-18.208,57.5H225.7c0,0,23.206-41.348,37.262-78.187c1.664-4.361,6.922-6.263,10.857-3.751
				C274.641,287.285,275.488,287.949,276.346,288.782z"/>

            <line style="fill:none;stroke:#5F8024;stroke-width:0.5;stroke-linecap:round;stroke-linejoin:round;stroke-miterlimit:10;" x1="204.688" y1="363.557" x2="227.513" y2="363.557"/>

            <line style="fill:none;stroke:#5F8024;stroke-width:0.5;stroke-linecap:round;stroke-linejoin:round;stroke-miterlimit:10;" x1="263.762" y1="272.824" x2="262.262" y2="284.532"/>

            <line style="fill:none;stroke:#5F8024;stroke-width:0.5;stroke-linecap:round;stroke-linejoin:round;stroke-miterlimit:10;" x1="268.429" y1="278.678" x2="264.596" y2="284.532"/>
		</g>
        <g>
			<path style="fill:#FF8282;" d="M459.763,399.949l-2.5,13.25c0,0,2.583,3.75,2.167,7.917c-0.417,4.167-3.298,12.167-3.298,12.167
				h-2.036c0,0,1.417-7.661,0-8.247c-1.417-0.586-7.417,5.997-10.917,7.081c-3.5,1.083-14.417,2.5-14.917,1.167
				c-0.5-1.333,8.083-6.083,8.083-6.083s6.25-10.917,10.417-15l2.25-10.833L459.763,399.949z"/>
            <path style="fill:#FF8282;" d="M467.278,397.185l3.917,10.928c0,0,3.333,1.5,4.75,4.417c1.417,2.917,2.5,16.667,2.5,16.667
				h-1.667c0,0-2.405-10.954-3.917-11c-1.512-0.046-2.917,7.667-5.917,11c-3,3.333-15.5,3.833-15.333,3.291
				c0.167-0.541,7.083-6.625,7.083-6.625s2.748-6.611,4.047-10.704c0.312-0.982,0.269-2.043-0.1-3.005l-5.197-13.541
				L467.278,397.185z"/>
            <path style="fill:#820000;" d="M466.945,429.197c3-3.333,4.405-11.046,5.917-11c1.512,0.046,3.917,11,3.917,11h1.667
				c0,0-1.083-13.75-2.5-16.667c-0.724-1.491-1.947-2.609-2.971-3.348c-1.191,1.499-2.129,3.979-3.695,6.369
				c-1.825,2.785-5.287,4.278-8.093,4.018c-1.221,3.241-2.49,6.295-2.49,6.295s-6.917,6.083-7.083,6.625
				C451.445,433.03,463.945,432.53,466.945,429.197z"/>
            <path style="fill:#B52626;" d="M443.18,432.115c3.5-1.083,9.5-7.667,10.917-7.081c1.417,0.586,0,8.247,0,8.247h2.036
				c0,0,2.881-8,3.298-12.167c0.242-2.423-0.529-4.699-1.218-6.185c-3.768,0.421-6.603,5.67-10.282,6.185
				c-2.144,0.3-4.239-1.407-5.772-3.135c-3.065,4.423-5.811,9.219-5.811,9.219s-8.583,4.75-8.083,6.083
				C428.763,434.615,439.68,433.199,443.18,432.115z"/>
            <path style="fill:#12255E;" d="M467.876,264.866l-6.095,16.333c0,0-42.601,8.167-37.268,39.25
				c5.333,31.083,30.374,83.25,30.374,83.25l16.882-2.166c0,0,1.492-3.713-1.442-9.333c-2.934-5.62-3.785-16-5.299-22.333
				c-1.514-6.333-5.264-51.21-5.264-51.21s48,1.718,51.062-10.949c3.061-12.667-2.516-42.842-2.516-42.842H467.876z"/>

            <linearGradient id="SVGID_00000030469973925003785890000011045787631340941759_" gradientUnits="userSpaceOnUse" x1="492.8647" y1="280.6843" x2="432.6145" y2="342.1844">
				<stop  offset="0" style="stop-color:#000000;stop-opacity:0"/>
                <stop  offset="1" style="stop-color:#000000"/>
			</linearGradient>
            <path style="opacity:0.36;fill:url(#SVGID_00000030469973925003785890000011045787631340941759_);" d="M510.825,307.707
				c3.061-12.667-2.516-42.842-2.516-42.842h-40.433l-6.095,16.333c0,0-27.425,5.262-35.509,23.4l0,0
				c5.163-9.946,23.979,11.874,35.093,32.294c-0.91-9.952-1.602-18.237-1.602-18.237S507.764,320.374,510.825,307.707z"/>

            <line style="fill:none;stroke:#222F73;stroke-width:0.75;stroke-linecap:round;stroke-linejoin:round;stroke-miterlimit:10;" x1="446.513" y1="303.952" x2="450.162" y2="316.153"/>
            <path style="fill:none;stroke:#222F73;stroke-width:0.75;stroke-linecap:round;stroke-linejoin:round;stroke-miterlimit:10;" d="
				M442.388,315.086c0,0,4.73,0.763,5.949,4.423"/>
            <path style="fill:#222F73;" d="M521.393,264.866c0,0,9.165,10.821,11.662,28.167c2.497,17.345-12.95,23.833-24.746,26
				c-11.796,2.167-24.629,3.917-24.629,3.917l-20.5,80.083l-18.667,1.5c0,0,1.5-3.833,2.167-11.5
				c0.667-7.667,1.333-10.377,2.333-16.855s1.5-15.978,2.333-21.311c0.833-5.333,2.5-33.333,4.667-44.5
				c2.167-11.167,6.191-22.976,23.217-26.167C489.013,282.366,498.273,264.866,521.393,264.866z"/>
            <path style="fill:none;stroke:#3054AB;stroke-width:0.75;stroke-linecap:round;stroke-linejoin:round;stroke-miterlimit:10;" d="
				M479.763,312.866c0,0,4.083,1.991,3.75,7.995"/>

            <line style="fill:none;stroke:#3054AB;stroke-width:0.75;stroke-linecap:round;stroke-linejoin:round;stroke-miterlimit:10;" x1="481.097" y1="320.449" x2="475.597" y2="316.863"/>

            <line style="fill:none;stroke:#3054AB;stroke-width:0.75;stroke-linecap:round;stroke-linejoin:round;stroke-miterlimit:10;" x1="447.93" y1="399.949" x2="464.335" y2="398.52"/>
            <path style="fill:#FF8282;" d="M396.117,257.074c0,0-3.688,1.814-6.813,2.282c-3.125,0.468-11.063-0.524-13,4.597h20.125
				L396.117,257.074z"/>
            <path style="fill:#222F73;" d="M465.18,183.635c0,0,12.917-4,22.5-2.083l9,85.688h-28.313c0,0-7.354-34.374-6.521-49.541
				C462.68,202.532,465.18,183.635,465.18,183.635z"/>

            <linearGradient id="SVGID_00000093867074509102436910000007434434386560337299_" gradientUnits="userSpaceOnUse" x1="480.7714" y1="224.8351" x2="451.0171" y2="224.8351">
				<stop  offset="0" style="stop-color:#000000;stop-opacity:0"/>
                <stop  offset="1" style="stop-color:#000000"/>
			</linearGradient>
            <path style="opacity:0.36;fill:url(#SVGID_00000093867074509102436910000007434434386560337299_);" d="M470.326,217.032
				c-5.402-11.761-1.62-29.536-0.366-34.601c-2.88,0.617-4.781,1.204-4.781,1.204s-2.5,18.897-3.333,34.064
				c-0.833,15.167,6.521,49.541,6.521,49.541h11.773C480.729,255.079,476.367,230.185,470.326,217.032z"/>
            <path style="fill:#26330C;" d="M455.43,147.949c-4.333,0-8.083,4.333-6.667,9.5c-2.333,4.75-2.609,9.75-0.304,13.083
				c0,0-2.112,1.667-2.529,6.75h27.655L455.43,147.949z"/>
            <path style="fill:#FF8282;" d="M474.097,168.449c0,0,0.167-10.667-5.667-15.083c-5.833-4.417-12.5-0.75-12.5-0.75
				c-1.022,1.716-1.551,5.219-2.333,7.583c-0.943,2.849-3.333,4.917-3.333,4.917l3.333,0.667c0,0,0.19,0.844,0.481,1.979h4.603
				c0,0-2.156,1.535-4.081,1.926c0.418,1.456,0.905,2.92,1.331,3.595c1,1.583,7.417-0.167,7.417-0.167l5.729,10.228
				c0.313,0.559,0.773,1.029,1.344,1.318c4.791,2.414,8.135,1.663,10.194,0.467c1.623-0.943,2.11-3.065,1.105-4.65L474.097,168.449z
				"/>
            <polygon style="fill:#D94D4D;" points="463.347,173.115 468.367,171.949 465.004,176.075 			"/>
            <path style="fill:#DB3269;" d="M484.097,181.032c0,0-3.542,36.542,3.083,53.792l1.625,32.416h34.625l-18.125-82.041
				C505.305,185.199,494.847,181.407,484.097,181.032z"/>

            <linearGradient id="SVGID_00000177452813385839309430000003854326809481386629_" gradientUnits="userSpaceOnUse" x1="497.8925" y1="275.5063" x2="511.8485" y2="238.443">
				<stop  offset="0" style="stop-color:#000000;stop-opacity:0"/>
                <stop  offset="1" style="stop-color:#000000"/>
			</linearGradient>
            <polygon style="opacity:0.36;fill:url(#SVGID_00000177452813385839309430000003854326809481386629_);" points="523.43,267.24
				510.943,210.72 501.063,207.532 487.849,248.176 488.805,267.24 			"/>
            <path style="fill:#DB3269;" d="M466.93,182.949c0,0-2.396,10.5-1.073,28.75s7.073,42.956,6.948,55.541h-9.625
				c0,0-5-31.166-8-37.541l-17.5,34.254h-45.125v-8.879l30.5-6.75c0,0,13.5-30.333,18.125-40.792S451.305,186.25,466.93,182.949z"/>

            <linearGradient id="SVGID_00000056415307947178959190000014528559487644832385_" gradientUnits="userSpaceOnUse" x1="410.9302" y1="250.0476" x2="452.5969" y2="221.7143">
				<stop  offset="0" style="stop-color:#000000;stop-opacity:0"/>
                <stop  offset="1" style="stop-color:#000000"/>
			</linearGradient>
            <path style="opacity:0.36;fill:url(#SVGID_00000056415307947178959190000014528559487644832385_);" d="M451.43,209.199
				c1.836-7.152,6.336-18.931,8.283-23.909c-10.271,4.684-14.705,13.586-18.533,22.242c-2.712,6.133-8.474,19.095-12.778,28.772
				l4.431,27.648h4.846l17.5-34.254C452.805,222.324,449.055,218.449,451.43,209.199z"/>
            <polygon style="fill:#820000;" points="392.555,255.074 392.555,263.953 393.742,263.953 393.978,254.759 			"/>
            <path style="fill:#304012;" d="M455.43,147.949c0,0-0.75,12.333,7.25,14.25c0,0,0.171,6.777,7,8.417c1.75,4.917,4,8,11.917,8
				c7.917,0,15.75,0,15.75,0s2.917-4.75-4.083-8.333c0,0-2.583-9.75-11.167-12.417c0,0-2.167-9.917-12.75-9.917
				C462.847,147.949,455.43,147.949,455.43,147.949z"/>
            <path style="fill:#DB3269;" d="M505.305,185.199c12.18,3.37,29.351,29.029,35.902,42.645
				c8.012,16.652,2.177,35.855-11.322,35.855c-13.499,0-57.33,0-57.33,0l-0.785-11.819l44.962-8.631
				c0,0-12.757-20.589-16.999-30.801C495.491,202.236,498.624,187.485,505.305,185.199z"/>
            <path style="fill:#FF8282;" d="M473.347,255.949c0,0-5.5,1.72-8.5,1.693c-3-0.027-16.833,0.556-18.333,6.056h28.25
				L473.347,255.949z"/>
            <path style="fill:none;stroke:#FF709F;stroke-width:0.75;stroke-linecap:round;stroke-linejoin:round;stroke-miterlimit:10;" d="
				M537.887,250.199c0,0-1.832,4.375-4.832,6.375"/>

            <line style="fill:none;stroke:#FF709F;stroke-width:0.75;stroke-linecap:round;stroke-linejoin:round;stroke-miterlimit:10;" x1="516.731" y1="243.248" x2="526.055" y2="241.824"/>
            <path style="fill:none;stroke:#FF709F;stroke-width:0.75;stroke-linecap:round;stroke-linejoin:round;stroke-miterlimit:10;" d="
				M499.049,193.428c0,0-3.599,11.267,2.014,21.992"/>
            <polygon style="fill:#820000;" points="471.769,251.88 472.554,263.699 475.669,263.953 474.622,251.332 			"/>

            <line style="fill:none;stroke:#FF709F;stroke-width:0.75;stroke-linecap:round;stroke-linejoin:round;stroke-miterlimit:10;" x1="445.18" y1="219.199" x2="451.18" y2="227.449"/>
		</g>
        <g>
			<g>

					<linearGradient id="SVGID_00000156563129525222879180000018070025205332823199_" gradientUnits="userSpaceOnUse" x1="127.6056" y1="365.8688" x2="105.3556" y2="323.6188">
					<stop  offset="0" style="stop-color:#FF3636"/>
                        <stop  offset="0.1451" style="stop-color:#FF3C36"/>
                        <stop  offset="0.3436" style="stop-color:#FF4E36"/>
                        <stop  offset="0.5731" style="stop-color:#FF6B36"/>
                        <stop  offset="0.8239" style="stop-color:#FF9336"/>
                        <stop  offset="1" style="stop-color:#FFB336"/>
				</linearGradient>
                <path style="fill:url(#SVGID_00000156563129525222879180000018070025205332823199_);" d="M135.833,362.707
					c0,0,2.723-10.056-1.051-16.252c-3.774-6.196-7.817-4.718-11.259-10.466c-3.442-5.748-12.909-29.505-27.552-19.605
					c-8.088,5.468-4.898,17.473,1.406,22.252c6.303,4.78,12.261,4.248,14.497,10.755
					C114.108,355.897,121.189,367.62,135.833,362.707z"/>

                <linearGradient id="SVGID_00000013878786275170011840000002501746555009281433_" gradientUnits="userSpaceOnUse" x1="143.1248" y1="362.493" x2="140.1248" y2="321.243">
					<stop  offset="0" style="stop-color:#FF3636"/>
                    <stop  offset="0.1451" style="stop-color:#FF3C36"/>
                    <stop  offset="0.3436" style="stop-color:#FF4E36"/>
                    <stop  offset="0.5731" style="stop-color:#FF6B36"/>
                    <stop  offset="0.8239" style="stop-color:#FF9336"/>
                    <stop  offset="1" style="stop-color:#FFB336"/>
				</linearGradient>
                <path style="fill:url(#SVGID_00000013878786275170011840000002501746555009281433_);" d="M151.565,358.755
					c0,0,11.587-13.846,8.753-32.513c-2.228-14.68-7.167-11-10.833-24.333c-3.667-13.333-10.833-21.583-21.333-17.042
					c-10.5,4.542-12.5,13.875-5.667,24.375c6.833,10.5,12.167,13.5,11.167,23.167C132.652,342.076,140.812,352.268,151.565,358.755z
					"/>

                <linearGradient id="SVGID_00000040557369288088913320000016100286176613524872_" gradientUnits="userSpaceOnUse" x1="163.7653" y1="361.368" x2="178.2654" y2="320.6178">
					<stop  offset="0" style="stop-color:#FF3636"/>
                    <stop  offset="0.1451" style="stop-color:#FF3C36"/>
                    <stop  offset="0.3436" style="stop-color:#FF4E36"/>
                    <stop  offset="0.5731" style="stop-color:#FF6B36"/>
                    <stop  offset="0.8239" style="stop-color:#FF9336"/>
                    <stop  offset="1" style="stop-color:#FFB336"/>
				</linearGradient>
                <path style="fill:url(#SVGID_00000040557369288088913320000016100286176613524872_);" d="M174.118,328.011
					c6.373,0.136,3.875,13.851,0,22.162c-3.875,8.311-6.413,12.669-9.519,12.669c0,0-5.981-0.369-3.106-7.904
					c2.875-7.535,4.375-9.087,4.875-14.073C166.868,335.879,166.241,327.844,174.118,328.011z"/>

                <path style="fill:none;stroke:#222F73;stroke-width:0.75;stroke-linecap:round;stroke-linejoin:round;stroke-miterlimit:10;" d="
					M130.569,290.992c0,0,24.75,52.75,22.25,91.45"/>

                <path style="fill:none;stroke:#222F73;stroke-width:0.75;stroke-linecap:round;stroke-linejoin:round;stroke-miterlimit:10;" d="
					M142.134,372.032c0,0-27.603-42.828-46.296-54.33"/>

                <path style="fill:none;stroke:#222F73;stroke-width:0.75;stroke-linecap:round;stroke-linejoin:round;stroke-miterlimit:10;" d="
					M174.118,328.011c0,0-5.125,29.606-12.625,42.481"/>

                <linearGradient id="SVGID_00000152229779732886900600000008865342873208482723_" gradientUnits="userSpaceOnUse" x1="150.0956" y1="361.0004" x2="150.0956" y2="434.5531">
					<stop  offset="0" style="stop-color:#B3EBCD"/>
                    <stop  offset="0.122" style="stop-color:#ADE7CC"/>
                    <stop  offset="0.2891" style="stop-color:#9BDBCA"/>
                    <stop  offset="0.4821" style="stop-color:#7EC7C6"/>
                    <stop  offset="0.693" style="stop-color:#56ACC1"/>
                    <stop  offset="0.8412" style="stop-color:#3696BD"/>
				</linearGradient>
                <polygon style="fill:url(#SVGID_00000152229779732886900600000008865342873208482723_);" points="170.929,432.63
					129.262,432.63 121.484,366.34 178.707,366.34 				"/>

                <linearGradient id="SVGID_00000072255482629517977310000016488817438184640699_" gradientUnits="userSpaceOnUse" x1="141.4496" y1="397.7912" x2="162.7829" y2="350.1245">
					<stop  offset="0" style="stop-color:#000000;stop-opacity:0"/>
                    <stop  offset="1" style="stop-color:#000000"/>
				</linearGradient>
                <path style="opacity:0.36;fill:url(#SVGID_00000072255482629517977310000016488817438184640699_);" d="M122.354,373.758
					c9.298,0.856,35.751,5.058,52.494,25.471l3.859-32.888h-57.224L122.354,373.758z"/>
			</g>
            <g>

					<linearGradient id="SVGID_00000057850941024342946900000004400053597488175544_" gradientUnits="userSpaceOnUse" x1="607.5898" y1="373.352" x2="631.2565" y2="316.6853">
					<stop  offset="0" style="stop-color:#FF3636"/>
                        <stop  offset="0.6803" style="stop-color:#FF8E36"/>
                        <stop  offset="1" style="stop-color:#FFB336"/>
				</linearGradient>
                <path style="fill:url(#SVGID_00000057850941024342946900000004400053597488175544_);" d="M636.769,301.535
					c13.051,3.012,7.667,16.5,2.333,22.333c-5.333,5.833,0,12.5-7,23.833c-7,11.333-20.73,13.925-20.73,13.925
					s-7.27-4.092-6.103-14.592c1.167-10.5,7.5-9.667,10-20.833C617.769,315.035,621.603,298.035,636.769,301.535z"/>

                <linearGradient id="SVGID_00000179638387886385327130000009658329936150765503_" gradientUnits="userSpaceOnUse" x1="597.1943" y1="381.9459" x2="594.861" y2="312.9462">
					<stop  offset="0" style="stop-color:#FF3636"/>
                    <stop  offset="0.1451" style="stop-color:#FF3C36"/>
                    <stop  offset="0.3436" style="stop-color:#FF4E36"/>
                    <stop  offset="0.5731" style="stop-color:#FF6B36"/>
                    <stop  offset="0.8239" style="stop-color:#FF9336"/>
                    <stop  offset="1" style="stop-color:#FFB336"/>
				</linearGradient>
                <path style="fill:url(#SVGID_00000179638387886385327130000009658329936150765503_);" d="M594.824,292.572
					c11.073,0.842,10.271,14.833,8.438,23.5c-1.833,8.667,5.094,10.888,1.88,21.527c-3.214,10.639-11.083,19.306-11.083,19.306
					s-9.631-5-8.631-16.5s3.179-14.5-0.077-25.167C582.096,304.572,586.053,291.905,594.824,292.572z"/>

                <linearGradient id="SVGID_00000034778172751478438570000012767991696508165504_" gradientUnits="userSpaceOnUse" x1="573.3577" y1="381.036" x2="570.0245" y2="317.3694">
					<stop  offset="0" style="stop-color:#FF3636"/>
                    <stop  offset="0.1451" style="stop-color:#FF3C36"/>
                    <stop  offset="0.3436" style="stop-color:#FF4E36"/>
                    <stop  offset="0.5731" style="stop-color:#FF6B36"/>
                    <stop  offset="0.8239" style="stop-color:#FF9336"/>
                    <stop  offset="1" style="stop-color:#FFB336"/>
				</linearGradient>
                <path style="fill:url(#SVGID_00000034778172751478438570000012767991696508165504_);" d="M563.596,328.905
					c6.028-4.076,11.417-0.583,12.167,4.833c0.75,5.417,1.25,9.25,4.833,12.417c3.583,3.167,3.087,13.893-1.415,17.197
					c0,0-9.585,0.803-11.252-5.78c-1.667-6.583-0.583-11.25-4.333-14.083C559.846,340.655,557.679,332.905,563.596,328.905z"/>

                <path style="fill:none;stroke:#222F73;stroke-width:0.75;stroke-linecap:round;stroke-linejoin:round;stroke-miterlimit:10;" d="
					M635.436,304.035c0,0-15,31.667-26,63"/>

                <path style="fill:none;stroke:#222F73;stroke-width:0.75;stroke-linecap:round;stroke-linejoin:round;stroke-miterlimit:10;" d="
					M594.866,295.072c0,0-6.937,48.333,2.396,75.333"/>

                <path style="fill:none;stroke:#222F73;stroke-width:0.75;stroke-linecap:round;stroke-linejoin:round;stroke-miterlimit:10;" d="
					M565.418,331.348c0,0,10.032,20.543,15.534,37.048"/>

                <linearGradient id="SVGID_00000081635067224513024520000003976131330629777316_" gradientUnits="userSpaceOnUse" x1="564.8903" y1="399.4849" x2="622.1142" y2="399.4849">
					<stop  offset="0" style="stop-color:#B3EBCD"/>
                    <stop  offset="0.122" style="stop-color:#ADE7CC"/>
                    <stop  offset="0.2891" style="stop-color:#9BDBCA"/>
                    <stop  offset="0.4821" style="stop-color:#7EC7C6"/>
                    <stop  offset="0.693" style="stop-color:#56ACC1"/>
                    <stop  offset="0.8412" style="stop-color:#3696BD"/>
				</linearGradient>
                <polygon style="fill:url(#SVGID_00000081635067224513024520000003976131330629777316_);" points="614.336,432.63
					572.669,432.63 564.89,366.34 622.114,366.34 				"/>

                <linearGradient id="SVGID_00000077324954536181612700000003589559915931627161_" gradientUnits="userSpaceOnUse" x1="564.8903" y1="382.7844" x2="622.1143" y2="382.7844">
					<stop  offset="0" style="stop-color:#000000;stop-opacity:0"/>
                    <stop  offset="1" style="stop-color:#000000"/>
				</linearGradient>
                <path style="opacity:0.36;fill:url(#SVGID_00000077324954536181612700000003589559915931627161_);" d="M565.761,373.758
					c9.298,0.856,35.751,5.058,52.494,25.471l3.859-32.888H564.89L565.761,373.758z"/>
			</g>
		</g>
        <g>

				<linearGradient id="SVGID_00000103970648769571246900000008430833417634346918_" gradientUnits="userSpaceOnUse" x1="148.0332" y1="149.0113" x2="215.5968" y2="149.0113">
				<stop  offset="0" style="stop-color:#000000;stop-opacity:0"/>
                    <stop  offset="1" style="stop-color:#000000"/>
			</linearGradient>
            <path style="opacity:0.36;fill:url(#SVGID_00000103970648769571246900000008430833417634346918_);" d="M215.597,163.206
				l-10.256-7.901c0.449-2.027,0.693-4.131,0.693-6.294c0-16.016-12.984-29-29-29c-16.016,0-29,12.984-29,29s12.984,29,29,29
				c11.381,0,21.224-6.559,25.972-16.1L215.597,163.206z"/>
            <path style="fill:#F9BA39;" d="M215.597,160.386l-10.256-7.901c0.449-2.027,0.693-4.131,0.693-6.294c0-16.016-12.984-29-29-29
				c-16.016,0-29,12.984-29,29c0,16.016,12.984,29,29,29c11.381,0,21.224-6.559,25.972-16.1L215.597,160.386z"/>
            <g>
				<path style="fill:#FFFFFF;" d="M174.279,159.701c-0.001,0-0.003,0-0.004,0c-0.866-0.001-1.674-0.433-2.156-1.152l-9.1-13.573
					c-0.8-1.193-0.481-2.808,0.712-3.607c1.192-0.801,2.807-0.481,3.607,0.712l6.947,10.362l12.564-18.615
					c0.803-1.19,2.418-1.504,3.609-0.701c1.19,0.804,1.504,2.42,0.701,3.61l-14.726,21.819
					C175.95,159.272,175.143,159.701,174.279,159.701z"/>
			</g>
		</g>
        <g>

				<linearGradient id="SVGID_00000059302371947478332470000012956230982489981108_" gradientUnits="userSpaceOnUse" x1="579.3279" y1="204.7288" x2="532.8279" y2="118.7289">
				<stop  offset="0" style="stop-color:#000000;stop-opacity:0"/>
                    <stop  offset="1" style="stop-color:#000000"/>
			</linearGradient>
            <path style="opacity:0.36;fill:url(#SVGID_00000059302371947478332470000012956230982489981108_);" d="M506.015,163.376
				l13.195-10.165c-0.577-2.608-0.891-5.315-0.891-8.097c0-20.605,16.704-37.308,37.308-37.308
				c20.605,0,37.308,16.704,37.308,37.308c0,20.605-16.703,37.308-37.308,37.308c-14.641,0-27.305-8.438-33.413-20.712
				L506.015,163.376z"/>
            <path style="fill:#F9BA39;" d="M506.015,159.749l13.195-10.165c-0.577-2.608-0.891-5.315-0.891-8.097
				c0-20.605,16.704-37.308,37.308-37.308c20.605,0,37.308,16.704,37.308,37.308c0,20.605-16.703,37.308-37.308,37.308
				c-14.641,0-27.305-8.438-33.413-20.712L506.015,159.749z"/>
            <g>

					<linearGradient id="SVGID_00000146488620892160271330000012200352530319974024_" gradientUnits="userSpaceOnUse" x1="556.6936" y1="141.9075" x2="529.7769" y2="164.7409">
					<stop  offset="0" style="stop-color:#000000;stop-opacity:0"/>
                        <stop  offset="1" style="stop-color:#000000"/>
				</linearGradient>

                <rect x="537.772" y="121.507" style="opacity:0.36;fill:url(#SVGID_00000146488620892160271330000012200352530319974024_);" width="35.029" height="43.188"/>
                <rect x="538.772" y="120.257" style="fill:#F9EBCF;" width="35.029" height="43.188"/>
                <g>

						<line style="fill:none;stroke:#F9BA39;stroke-width:0.6432;stroke-linecap:round;stroke-linejoin:round;stroke-miterlimit:10;" x1="544.37" y1="127.424" x2="554.537" y2="127.424"/>

                    <line style="fill:none;stroke:#F9BA39;stroke-width:0.6432;stroke-linecap:round;stroke-linejoin:round;stroke-miterlimit:10;" x1="544.37" y1="133.257" x2="568.204" y2="133.257"/>

                    <line style="fill:none;stroke:#F9BA39;stroke-width:0.6432;stroke-linecap:round;stroke-linejoin:round;stroke-miterlimit:10;" x1="544.37" y1="137.882" x2="568.204" y2="137.882"/>

                    <line style="fill:none;stroke:#F9BA39;stroke-width:0.6432;stroke-linecap:round;stroke-linejoin:round;stroke-miterlimit:10;" x1="544.37" y1="142.507" x2="568.204" y2="142.507"/>

                    <line style="fill:none;stroke:#F9BA39;stroke-width:0.6432;stroke-linecap:round;stroke-linejoin:round;stroke-miterlimit:10;" x1="544.37" y1="147.132" x2="568.204" y2="147.132"/>

                    <line style="fill:none;stroke:#F9BA39;stroke-width:0.6432;stroke-linecap:round;stroke-linejoin:round;stroke-miterlimit:10;" x1="544.37" y1="151.757" x2="568.204" y2="151.757"/>
				</g>

                <linearGradient id="SVGID_00000093889264225328301150000004287320298146665872_" gradientUnits="userSpaceOnUse" x1="554.311" y1="163.4445" x2="567.4778" y2="163.4445">
					<stop  offset="0" style="stop-color:#000000;stop-opacity:0"/>
                    <stop  offset="1" style="stop-color:#000000"/>
				</linearGradient>
                <path style="opacity:0.36;fill:url(#SVGID_00000093889264225328301150000004287320298146665872_);" d="M568.204,163.445
					c0,3.095-2.509,5.604-5.604,5.604s-5.604-2.509-5.604-5.604c0-3.095,2.509-5.604,5.604-5.604S568.204,160.349,568.204,163.445z"
                />
                <path style="fill:#FF3636;" d="M568.968,163.445c0,3.095-2.509,5.604-5.604,5.604c-3.095,0-5.604-2.509-5.604-5.604
					c0-3.095,2.509-5.604,5.604-5.604C566.459,157.84,568.968,160.349,568.968,163.445z"/>
			</g>
		</g>
        <path style="fill:#2F4BE8;" d="M454.587,58.834h-46.34c-3.515,0-6.365,2.849-6.365,6.365v4.189c0,1.953-1.21,3.702-3.037,4.392
			l-7.252,2.737l7.252,2.736c1.828,0.69,3.037,2.439,3.037,4.392v4.189c0,3.515,2.849,6.364,6.364,6.364h46.341
			c3.515,0,6.364-2.849,6.364-6.364V65.198C460.951,61.683,458.102,58.834,454.587,58.834z"/>
        <g>

				<linearGradient id="SVGID_00000023978659721483383950000012661793923915544502_" gradientUnits="userSpaceOnUse" x1="250.4499" y1="96.1207" x2="305.7595" y2="96.1207">
				<stop  offset="0" style="stop-color:#000000;stop-opacity:0"/>
                    <stop  offset="1" style="stop-color:#000000"/>
			</linearGradient>

            <circle style="opacity:0.36;fill:url(#SVGID_00000023978659721483383950000012661793923915544502_);" cx="278.105" cy="96.121" r="27.655"/>
            <circle style="fill:#2F4BE8;" cx="278.105" cy="93.444" r="27.655"/>
            <circle style="fill:#F9BA39;" cx="278.105" cy="93.444" r="21.384"/>

            <polyline style="fill:none;stroke:#222F73;stroke-width:2;stroke-linecap:round;stroke-linejoin:round;stroke-miterlimit:10;" points="
				268.367,83.598 278.105,93.444 293.308,84.239 			"/>
		</g>

        <line style="fill:none;stroke:#0A2873;stroke-width:1.2132;stroke-miterlimit:10;" x1="111.938" y1="432.676" x2="625.42" y2="432.676"/>
        <g>
			<rect x="258.113" y="270.78" style="fill:#7A4A0F;" width="221.132" height="17.622"/>
            <rect x="233.971" y="263.699" style="fill:#9E6013;" width="269.417" height="7.081"/>
            <g>
				<polygon style="fill:#9E6013;" points="236.716,432.63 229.6,432.63 249.863,270.78 265.98,270.78 				"/>
                <polygon style="fill:#9E6013;" points="500.641,432.63 507.758,432.63 487.494,270.78 471.378,270.78 				"/>
			</g>

            <linearGradient id="SVGID_00000183211807466139186760000007558170647738768056_" gradientUnits="userSpaceOnUse" x1="369.1179" y1="298.6671" x2="369.1179" y2="271.9816">
				<stop  offset="0" style="stop-color:#000000;stop-opacity:0"/>
                <stop  offset="1" style="stop-color:#000000"/>
			</linearGradient>
            <polygon style="opacity:0.36;fill:url(#SVGID_00000183211807466139186760000007558170647738768056_);" points="248.923,278.29
				489.313,285.302 487.494,270.78 249.863,270.78 			"/>
		</g>
        <g>
			<path style="fill:#FFFFFF;" d="M412.907,76.516c0,1.441-1.168,2.608-2.609,2.608c-1.441,0-2.609-1.168-2.609-2.608
				c0-1.441,1.168-2.609,2.609-2.609C411.739,73.908,412.907,75.076,412.907,76.516z"/>
            <path style="fill:#FFFFFF;" d="M425.082,76.516c0,1.441-1.168,2.608-2.609,2.608s-2.609-1.168-2.609-2.608
				c0-1.441,1.168-2.609,2.609-2.609S425.082,75.076,425.082,76.516z"/>
            <path style="fill:#FFFFFF;" d="M437.257,76.516c0,1.441-1.168,2.608-2.609,2.608c-1.441,0-2.609-1.168-2.609-2.608
				c0-1.441,1.168-2.609,2.609-2.609C436.089,73.908,437.257,75.076,437.257,76.516z"/>
            <path style="fill:#FFFFFF;" d="M449.432,76.516c0,1.441-1.168,2.608-2.608,2.608s-2.609-1.168-2.609-2.608
				c0-1.441,1.168-2.609,2.609-2.609S449.432,75.076,449.432,76.516z"/>
		</g>
        <g>
			<rect x="278.897" y="260.616" style="fill:#FFFFFF;" width="61.158" height="3.083"/>
            <polygon style="fill:#FFFFFF;" points="392.382,263.699 328.664,263.699 342.518,214.531 406.235,214.531 			"/>
            <polygon style="fill:#D6E4F0;" points="331.134,263.699 328.664,263.699 342.518,214.531 344.988,214.531 			"/>
            <path style="fill:#477DFF;" d="M374.145,239.115c-1.042,3.698-4.884,6.695-8.582,6.695c-3.698,0-5.851-2.998-4.809-6.695
				c1.042-3.698,4.884-6.695,8.582-6.695C373.034,232.419,375.187,235.417,374.145,239.115z"/>
		</g>
        <g>

				<rect x="451.379" y="261.592" transform="matrix(-1 -1.224647e-16 1.224647e-16 -1 944.537 525.2913)" style="fill:#FFFFFF;" width="41.779" height="2.106"/>
            <polygon style="fill:#FFFFFF;" points="415.632,263.699 459.16,263.699 449.696,230.11 406.168,230.11 			"/>
            <polygon style="fill:#D6E4F0;" points="457.473,263.699 459.16,263.699 449.696,230.11 448.009,230.11 			"/>
            <path style="fill:#477DFF;" d="M428.09,246.904c0.712,2.526,3.337,4.574,5.863,4.574c2.526,0,3.997-2.048,3.285-4.574
				c-0.712-2.526-3.337-4.574-5.863-4.574C428.849,242.331,427.378,244.378,428.09,246.904z"/>
		</g>
        <g>
			<path style="fill:#FCB707;" d="M140.771,258.116c-3.174,2.092-4.438,3.788-5.996,8.05c-1.558-4.262-2.822-5.958-5.996-8.05
				c3.174-2.092,4.438-3.788,5.996-8.05C136.333,254.327,137.597,256.023,140.771,258.116z"/>
            <path style="fill:#FCB707;" d="M230.83,79.125c-3.174,2.092-4.438,3.788-5.996,8.05c-1.558-4.262-2.822-5.958-5.996-8.05
				c3.174-2.092,4.438-3.788,5.996-8.05C226.392,75.337,227.656,77.033,230.83,79.125z"/>
            <path style="fill:#FCB707;" d="M609.436,270.78c-3.174,2.092-4.438,3.788-5.996,8.05c-1.558-4.262-2.822-5.958-5.996-8.05
				c3.174-2.092,4.438-3.788,5.996-8.05C604.998,266.992,606.262,268.688,609.436,270.78z"/>
            <path style="fill:#FCB707;" d="M320.77,332.532c-3.174,2.092-4.438,3.788-5.996,8.05c-1.558-4.262-2.822-5.958-5.996-8.05
				c3.174-2.092,4.438-3.788,5.996-8.05C316.333,328.744,317.596,330.44,320.77,332.532z"/>
            <path style="fill:#FCB707;" d="M502.676,79.125c-3.174,2.092-4.438,3.788-5.996,8.05c-1.558-4.262-2.822-5.958-5.996-8.05
				c3.174-2.092,4.438-3.788,5.996-8.05C498.238,75.337,499.502,77.033,502.676,79.125z"/>
		</g>
	</g>
</g>
</svg>
