<svg xmlns="http://www.w3.org/2000/svg" enable-background="new 0 0 512 512" viewBox="0 0 512 512" width="256" height="256"><linearGradient id="a" x1="169.96" x2="58.477" y1="202.463" y2="138.098" gradientUnits="userSpaceOnUse"><stop offset="0" stop-color="#ffffff" class="stopColor000237 svgShape"></stop><stop offset=".156" stop-color="#4effff" class="stopColor04063c svgShape"></stop><stop offset=".337" stop-color="#4effff" class="stopColor0e124a svgShape"></stop><stop offset=".529" stop-color="#4effff" class="stopColor1f2661 svgShape"></stop><stop offset=".73" stop-color="#4effff" class="stopColor374281 svgShape"></stop><stop offset=".935" stop-color="#4effff" class="stopColor5565aa svgShape"></stop><stop offset="1" stop-color="#4effff" class="stopColor6072b9 svgShape"></stop></linearGradient><path fill="url(#a)" d="M98.666,248.113c-3.313,0-6-2.687-6-6V80.489c0-2.234,1.24-4.283,3.221-5.317
		c1.979-1.035,4.369-0.884,6.204,0.391l96.184,66.866c2.721,1.891,3.393,5.63,1.501,8.351c-1.891,2.721-5.631,3.394-8.351,1.501
		l-86.759-60.313v150.146C104.666,245.427,101.979,248.113,98.666,248.113z"></path><linearGradient id="b" x1="311.15" x2="419.334" y1="161.301" y2="161.301" gradientUnits="userSpaceOnUse"><stop offset="0" stop-color="#ffffff" class="stopColor000237 svgShape"></stop><stop offset=".156" stop-color="#4effff" class="stopColor04063c svgShape"></stop><stop offset=".337" stop-color="#4effff" class="stopColor0e124a svgShape"></stop><stop offset=".529" stop-color="#4effff" class="stopColor1f2661 svgShape"></stop><stop offset=".73" stop-color="#4effff" class="stopColor374281 svgShape"></stop><stop offset=".935" stop-color="#4effff" class="stopColor5565aa svgShape"></stop><stop offset="1" stop-color="#4effff" class="stopColor6072b9 svgShape"></stop></linearGradient><path fill="url(#b)" d="M413.334,248.113c-3.314,0-6-2.687-6-6V91.967l-86.759,60.313c-2.722,1.893-6.46,1.219-8.351-1.501
		c-1.893-2.721-1.22-6.46,1.501-8.351l96.184-66.866c1.835-1.276,4.226-1.426,6.204-0.391c1.98,1.035,3.221,3.083,3.221,5.317
		v161.625C419.334,245.427,416.647,248.113,413.334,248.113z"></path><linearGradient id="c" x1="145.712" x2="37.994" y1="282.142" y2="219.95" gradientUnits="userSpaceOnUse"><stop offset="0" stop-color="#ffffff" class="stopColor000237 svgShape"></stop><stop offset=".236" stop-color="#4effff" class="stopColor02053a svgShape"></stop><stop offset=".408" stop-color="#4effff" class="stopColor090d43 svgShape"></stop><stop offset=".559" stop-color="#4effff" class="stopColor151a53 svgShape"></stop><stop offset=".698" stop-color="#4effff" class="stopColor252d69 svgShape"></stop><stop offset=".829" stop-color="#4effff" class="stopColor3b4686 svgShape"></stop><stop offset=".952" stop-color="#4effff" class="stopColor5465a9 svgShape"></stop><stop offset="1" stop-color="#4effff" class="stopColor6072b9 svgShape"></stop></linearGradient><path fill="url(#c)" d="M100.085,352.197c-2.802,0-5.307-1.972-5.877-4.824l-32.94-164.746
		c-0.407-2.032,0.265-4.13,1.774-5.549c1.51-1.419,3.645-1.957,5.649-1.426l112.506,29.895c3.203,0.851,5.109,4.137,4.258,7.34
		s-4.138,5.107-7.34,4.258l-103.191-27.42l31.052,155.296c0.649,3.249-1.458,6.41-4.708,7.06
		C100.871,352.16,100.476,352.197,100.085,352.197z"></path><linearGradient id="d" x1="326.342" x2="450.849" y1="263.824" y2="263.824" gradientUnits="userSpaceOnUse"><stop offset="0" stop-color="#ffffff" class="stopColor000237 svgShape"></stop><stop offset=".236" stop-color="#4effff" class="stopColor02053a svgShape"></stop><stop offset=".408" stop-color="#4effff" class="stopColor090d43 svgShape"></stop><stop offset=".559" stop-color="#4effff" class="stopColor151a53 svgShape"></stop><stop offset=".698" stop-color="#4effff" class="stopColor252d69 svgShape"></stop><stop offset=".829" stop-color="#4effff" class="stopColor3b4686 svgShape"></stop><stop offset=".952" stop-color="#4effff" class="stopColor5465a9 svgShape"></stop><stop offset="1" stop-color="#4effff" class="stopColor6072b9 svgShape"></stop></linearGradient><path fill="url(#d)" d="M411.914,352.197c-0.39,0-0.785-0.037-1.182-0.117c-3.25-0.649-5.357-3.811-4.708-7.06
		l31.052-155.296l-103.191,27.42c-3.205,0.85-6.489-1.055-7.34-4.258c-0.852-3.203,1.055-6.489,4.258-7.34l112.506-29.895
		c2.004-0.531,4.139,0.007,5.648,1.426c1.511,1.419,2.182,3.517,1.775,5.549l-32.941,164.746
		C417.222,350.225,414.716,352.197,411.914,352.197z"></path><linearGradient id="e" x1="149.837" x2="372.35" y1="225.635" y2="225.635" gradientUnits="userSpaceOnUse"><stop offset="0" stop-color="#4effff" class="stopColorb5d3f6 svgShape"></stop><stop offset=".036" stop-color="#4effff" class="stopColorb1cff5 svgShape"></stop><stop offset=".695" stop-color="#4effff" class="stopColor6f86de svgShape"></stop><stop offset="1" stop-color="#ffffff" class="stopColor556ad5 svgShape"></stop></linearGradient><path fill="url(#e)" d="M305.486,119.848l-42.961,42.961l-43.165-43.166l1.517-1.517
		c-41.567,16.123-71.04,56.497-71.04,103.758c0,61.446,49.812,111.257,111.257,111.257c61.444,0,111.256-49.812,111.256-111.257
		C372.35,176.223,344.836,136.992,305.486,119.848z"></path><linearGradient id="f" x1="219.36" x2="305.486" y1="136.719" y2="136.719" gradientUnits="userSpaceOnUse"><stop offset="0" stop-color="#4effff" class="stopColorfbb8b7 svgShape"></stop><stop offset=".024" stop-color="#4effff" class="stopColorf8b3b5 svgShape"></stop><stop offset=".256" stop-color="#83e1e1" class="stopColore1839f svgShape"></stop><stop offset=".478" stop-color="#5dcfcf" class="stopColorcf5d8e svgShape"></stop><stop offset=".681" stop-color="#42c2c2" class="stopColorc24282 svgShape"></stop><stop offset=".862" stop-color="#32baba" class="stopColorba327b svgShape"></stop><stop offset="1" stop-color="#2cb7b7" class="stopColorb72c78 svgShape"></stop></linearGradient><path fill="url(#f)" d="M262.525,162.809l42.961-42.961c-13.6-5.925-28.611-9.219-44.393-9.219
		c-14.184,0-27.743,2.659-40.217,7.498l-1.517,1.517L262.525,162.809z"></path><linearGradient id="g" x1="173.089" x2="229.345" y1="323.13" y2="420.569" gradientUnits="userSpaceOnUse"><stop offset="0" stop-color="#ffffff" class="stopColor000237 svgShape"></stop><stop offset=".148" stop-color="#094343" class="stopColor090c43 svgShape"></stop><stop offset=".412" stop-color="#4effff" class="stopColor1f2661 svgShape"></stop><stop offset=".76" stop-color="#449393" class="stopColor445193 svgShape"></stop><stop offset="1" stop-color="#4effff" class="stopColor6072b9 svgShape"></stop></linearGradient><path fill="url(#g)" d="M198.385,437.512c-2.679,0-5.12-1.808-5.811-4.523l-19.497-76.729
		c-2.701-10.629-0.941-21.574,4.953-30.822c5.894-9.246,15.074-15.461,25.849-17.5c3.249-0.617,6.395,1.523,7.011,4.781
		c0.615,3.256-1.524,6.395-4.78,7.01c-7.486,1.416-13.865,5.734-17.961,12.16c-4.096,6.425-5.317,14.03-3.44,21.416l19.497,76.729
		c0.815,3.211-1.126,6.477-4.338,7.293C199.371,437.451,198.874,437.512,198.385,437.512z"></path><linearGradient id="h" x1="328.667" x2="328.667" y1="307.831" y2="437.512" gradientUnits="userSpaceOnUse"><stop offset="0" stop-color="#ffffff" class="stopColor000237 svgShape"></stop><stop offset=".148" stop-color="#094343" class="stopColor090c43 svgShape"></stop><stop offset=".412" stop-color="#4effff" class="stopColor1f2661 svgShape"></stop><stop offset=".76" stop-color="#449393" class="stopColor445193 svgShape"></stop><stop offset="1" stop-color="#4effff" class="stopColor6072b9 svgShape"></stop></linearGradient><path fill="url(#h)" d="M321.699,437.512c-0.489,0-0.986-0.06-1.482-0.186c-3.211-0.816-5.153-4.082-4.337-7.293
		l19.497-76.729c1.877-7.385,0.654-14.99-3.441-21.416s-10.475-10.744-17.961-12.16c-3.256-0.615-5.396-3.754-4.779-7.01
		c0.615-3.258,3.754-5.398,7.01-4.781c10.775,2.039,19.955,8.254,25.85,17.501s7.654,20.192,4.953,30.821l-19.498,76.729
		C326.82,435.704,324.379,437.512,321.699,437.512z"></path><linearGradient id="i" x1="191.145" x2="77.484" y1="348.617" y2="282.995" gradientUnits="userSpaceOnUse"><stop offset="0" stop-color="#ffffff" class="stopColor000237 svgShape"></stop><stop offset=".236" stop-color="#4effff" class="stopColor02053a svgShape"></stop><stop offset=".408" stop-color="#4effff" class="stopColor090d43 svgShape"></stop><stop offset=".559" stop-color="#4effff" class="stopColor151a53 svgShape"></stop><stop offset=".698" stop-color="#4effff" class="stopColor252d69 svgShape"></stop><stop offset=".829" stop-color="#4effff" class="stopColor3b4686 svgShape"></stop><stop offset=".952" stop-color="#4effff" class="stopColor5465a9 svgShape"></stop><stop offset="1" stop-color="#4effff" class="stopColor6072b9 svgShape"></stop></linearGradient><path fill="url(#i)" d="M149.831,414.164c-2.856,0-5.387-2.045-5.901-4.955L111.623,226.68
		c-0.401-2.265,0.528-4.56,2.392-5.907c1.863-1.348,4.333-1.511,6.358-0.423l73.895,39.75c2.918,1.569,4.012,5.208,2.441,8.126
		c-1.569,2.919-5.208,4.012-8.126,2.442l-62.984-33.882l30.147,170.33c0.577,3.264-1.6,6.377-4.862,6.955
		C150.53,414.135,150.178,414.164,149.831,414.164z"></path><linearGradient id="j" x1="316.529" x2="402.425" y1="316.899" y2="316.899" gradientUnits="userSpaceOnUse"><stop offset="0" stop-color="#ffffff" class="stopColor000237 svgShape"></stop><stop offset=".236" stop-color="#4effff" class="stopColor02053a svgShape"></stop><stop offset=".408" stop-color="#4effff" class="stopColor090d43 svgShape"></stop><stop offset=".559" stop-color="#4effff" class="stopColor151a53 svgShape"></stop><stop offset=".698" stop-color="#4effff" class="stopColor252d69 svgShape"></stop><stop offset=".829" stop-color="#4effff" class="stopColor3b4686 svgShape"></stop><stop offset=".952" stop-color="#4effff" class="stopColor5465a9 svgShape"></stop><stop offset="1" stop-color="#4effff" class="stopColor6072b9 svgShape"></stop></linearGradient><path fill="url(#j)" d="M364.125,414.164c-0.347,0-0.698-0.029-1.053-0.092c-3.262-0.578-5.439-3.691-4.861-6.955
		l30.146-170.33l-62.984,33.882c-2.918,1.569-6.557,0.476-8.127-2.442c-1.569-2.918-0.477-6.557,2.442-8.126l73.894-39.75
		c2.025-1.089,4.496-0.925,6.359,0.423c1.863,1.348,2.793,3.642,2.392,5.907l-32.306,182.529
		C369.512,412.119,366.98,414.164,364.125,414.164z"></path><linearGradient id="k" x1="189.806" x2="327.684" y1="280.285" y2="280.285" gradientUnits="userSpaceOnUse"><stop offset="0" stop-color="#5ab9b9" class="stopColor5a67b9 svgShape"></stop><stop offset=".111" stop-color="#43ffff" class="stopColor48529e svgShape"></stop><stop offset=".292" stop-color="#2e7979" class="stopColor2e3679 svgShape"></stop><stop offset=".474" stop-color="#1a5c5c" class="stopColor1a1f5c svgShape"></stop><stop offset=".653" stop-color="#0c4848" class="stopColor0c0f48 svgShape"></stop><stop offset=".83" stop-color="#033b3b" class="stopColor03053b svgShape"></stop><stop offset="1" stop-color="#ffffff" class="stopColor000237 svgShape"></stop></linearGradient><circle cx="258.745" cy="280.285" r="68.939" fill="url(#k)"></circle><path fill="#ffffff" d="M300.736,305.078L300.736,305.078c-14.821,0-26.947-12.127-26.947-26.947l0,0
		c0-14.821,12.126-26.948,26.947-26.948l0,0c14.82,0,26.947,12.127,26.947,26.948l0,0
		C327.684,292.951,315.557,305.078,300.736,305.078z" class="colorFEFDFA svgShape"></path><path fill="#43ffff" d="M300.736,296.653L300.736,296.653c-10.188,0-18.523-8.335-18.523-18.522l0,0
		c0-10.188,8.336-18.523,18.523-18.523l0,0c10.188,0,18.522,8.336,18.522,18.523l0,0
		C319.259,288.318,310.924,296.653,300.736,296.653z" class="color07013C svgShape"></path><path fill="#ffffff" d="M216.912,305.078L216.912,305.078c-14.821,0-26.947-12.127-26.947-26.947l0,0
		c0-14.821,12.126-26.948,26.947-26.948l0,0c14.82,0,26.947,12.127,26.947,26.948l0,0
		C243.859,292.951,231.732,305.078,216.912,305.078z" class="colorFEFDFA svgShape"></path><path fill="#43ffff" d="M216.912,296.653L216.912,296.653c-10.188,0-18.522-8.335-18.522-18.522l0,0
		c0-10.188,8.335-18.523,18.522-18.523l0,0c10.188,0,18.522,8.336,18.522,18.523l0,0C235.435,288.318,227.1,296.653,216.912,296.653
		z" class="color07013C svgShape"></path></svg>
