<svg xmlns="http://www.w3.org/2000/svg" data-name="Layer 1" viewBox="0 0 128 128" width="256" height="256"><path d="M31.53418 69.47656A1.9968 1.9968 0 0032.88281 70c.03418 0 .06885-.001.10352-.00293a1.99549 1.99549 0 001.39063-.668l7.11719-8a1.99974 1.99974 0 10-2.98828-2.6582l-5.77051 6.48633-1.38672-1.2666a1.99976 1.99976 0 00-2.69727 2.95313zM76 40a2.0001 2.0001 0 002-2V36h2a2 2 0 000-4H76a2.0001 2.0001 0 00-2 2v4A2.0001 2.0001 0 0076 40zM80 92H78V90a2 2 0 00-4 0v4a2.0001 2.0001 0 002 2h4a2 2 0 000-4zM126 88a2.0001 2.0001 0 00-2 2v2h-2a2 2 0 000 4h4a2.0001 2.0001 0 002-2V90A2.0001 2.0001 0 00126 88zM126 32h-4a2 2 0 000 4h2v2a2 2 0 004 0V34A2.0001 2.0001 0 00126 32z" fill="#c2f4ff" class="color000 svgShape"></path><rect width="12" height="12" x="108" y="40" rx="2" ry="2" fill="#c2f4ff" class="color000 svgShape"></rect><rect width="12" height="12" x="82" y="76" rx="2" ry="2" fill="#c2f4ff" class="color000 svgShape"></rect><path d="M120 58a2 2 0 00-4 0v2h-2a2 2 0 000 4h4a2.0001 2.0001 0 002-2zM118 68h-4a2 2 0 000 4h4a2 2 0 000-4zM108 72h-4a2 2 0 000 4h4a2 2 0 000-4zM109 56h-4a2 2 0 000 4h4a2 2 0 000-4zM118 76h-4a2.0001 2.0001 0 00-2 2v8a2 2 0 004 0V80h2a2 2 0 000-4zM107 66a2.0001 2.0001 0 00-2-2H99V58a2 2 0 00-4 0v8a2.0001 2.0001 0 002 2h8A2.0001 2.0001 0 00107 66zM108 84h-6V81a2 2 0 00-4 0v5a2.0001 2.0001 0 002 2h8a2 2 0 000-4zM92 68H88a2 2 0 000 4h4a2 2 0 000-4zM92 56H88a2.0001 2.0001 0 00-2 2v2H84a2 2 0 000 4h4a2.0001 2.0001 0 002-2V60h2a2 2 0 000-4zM92 44h4a2 2 0 000-4H92a2 2 0 000 4zM92 48H86V42a2 2 0 00-4 0v8a2.0001 2.0001 0 002 2h8a2 2 0 000-4zM101 55a2.0001 2.0001 0 002-2V49a2 2 0 00-4 0v4A2.0001 2.0001 0 00101 55z" fill="#c2f4ff" class="color000 svgShape"></path><path d="M107.373 82.0918a2 2 0 100-4H106a2 2 0 000 4zM62 0H8A8.00917 8.00917 0 000 8V120a8.00917 8.00917 0 008 8H62a8.00917 8.00917 0 008-8V8A8.00917 8.00917 0 0062 0zM35 8a2 2 0 11-2 2A2 2 0 0135 8zm5 112H30a2 2 0 010-4H40a2 2 0 010 4zM54 97H16a2 2 0 010-4H54a2 2 0 010 4zM35 50A14 14 0 1121 64 14 14 0 0135 50zM21 33a2.0001 2.0001 0 012-2H47a2 2 0 010 4H23A2.0001 2.0001 0 0121 33zm33-6H16a2 2 0 010-4H54a2 2 0 010 4z" fill="#c2f4ff" class="color000 svgShape"></path></svg>
